<svg width="24" height="24" viewBox="0 0 24 24" fill="none" xmlns="http://www.w3.org/2000/svg">
<path d="M6.24835 18.3809C5.46528 18.3795 4.70237 18.1371 4.06695 17.6878C3.43153 17.2385 2.95558 16.605 2.70606 15.8763L2.67106 15.7634C2.55904 15.4192 2.50071 15.0604 2.49804 14.6991V8.00504L0.0718466 15.9558C-0.076644 16.5216 0.00697574 17.1219 0.30472 17.6278C0.602464 18.1336 1.09054 18.5045 1.66398 18.6607L17.1282 22.7264C17.3213 22.7755 17.5143 22.7991 17.7043 22.7991C18.7004 22.7991 19.6104 22.1501 19.8655 21.1938L20.7665 18.3809H6.24835ZM8.99857 8.0718C10.1017 8.0718 10.9987 7.19111 10.9987 6.10817C10.9987 5.02522 10.1017 4.14453 8.99857 4.14453C7.89548 4.14453 6.99841 5.02522 6.99841 6.10817C6.99841 7.19111 7.89548 8.0718 8.99857 8.0718Z" fill="#F9AB72"/>
<path d="M21.4995 1.19922H6.49825C5.8354 1.2 5.19992 1.45885 4.73122 1.919C4.26251 2.37915 3.99884 3.00302 3.99805 3.65376V14.4538C3.99805 15.8067 5.12014 16.9083 6.49825 16.9083H21.4995C22.8776 16.9083 23.9997 15.8067 23.9997 14.4538V3.65376C23.9997 2.30082 22.8776 1.19922 21.4995 1.19922ZM6.49825 3.16286H21.4995C21.6321 3.16286 21.7593 3.21458 21.8531 3.30664C21.9468 3.3987 21.9995 3.52357 21.9995 3.65376V10.6237L18.8403 7.00471C18.6732 6.81633 18.4672 6.66505 18.236 6.56094C18.0047 6.45682 17.7535 6.40226 17.4991 6.40089C17.2439 6.40219 16.992 6.45832 16.7612 6.56534C16.5304 6.67237 16.3262 6.82769 16.163 7.02042L12.4487 11.3974L11.2386 10.2123C10.9096 9.88975 10.4636 9.70858 9.99854 9.70858C9.53352 9.70858 9.08751 9.88975 8.75844 10.2123L5.99821 12.9211V3.65376C5.99821 3.52357 6.05089 3.3987 6.14467 3.30664C6.23844 3.21458 6.36563 3.16286 6.49825 3.16286Z" fill="#F9AB72"/>
</svg>
