<svg width="98" height="120" viewBox="0 0 98 120" fill="none" xmlns="http://www.w3.org/2000/svg">
<g filter="url(#filter0_dd_7_1575)">
<path d="M57.8894 33.1806V44.4806C57.8894 46.4606 56.2794 48.0706 54.2994 48.0706C52.3294 48.0706 50.7094 46.4606 50.7094 44.4806C50.7094 42.5106 52.3294 40.9006 54.2994 40.9006C55.1394 40.9006 55.8894 41.1906 56.4994 41.6706V35.7206L47.2894 38.3406V46.4106C47.2894 48.3906 45.6694 50.0006 43.6994 50.0006C41.7194 50.0006 40.1094 48.3906 40.1094 46.4106C40.1094 44.4406 41.7194 42.8306 43.6994 42.8306C44.5294 42.8306 45.2794 43.1206 45.8894 43.5906V34.7506C45.8894 33.2806 46.7794 32.1406 48.1894 31.7606L53.9694 30.1806C55.1394 29.8606 56.1294 29.9706 56.8294 30.5106C57.5394 31.0406 57.8894 31.9406 57.8894 33.1806Z" fill="#3DD9B3"/>
</g>
<defs>
<filter id="filter0_dd_7_1575" x="-3" y="-2" width="104" height="124" filterUnits="userSpaceOnUse" color-interpolation-filters="sRGB">
<feFlood flood-opacity="0" result="BackgroundImageFix"/>
<feColorMatrix in="SourceAlpha" type="matrix" values="0 0 0 0 0 0 0 0 0 0 0 0 0 0 0 0 0 0 127 0" result="hardAlpha"/>
<feOffset/>
<feGaussianBlur stdDeviation="15"/>
<feComposite in2="hardAlpha" operator="out"/>
<feColorMatrix type="matrix" values="0 0 0 0 0.34902 0 0 0 0 0.407843 0 0 0 0 0.698039 0 0 0 0.06 0"/>
<feBlend mode="normal" in2="BackgroundImageFix" result="effect1_dropShadow_7_1575"/>
<feColorMatrix in="SourceAlpha" type="matrix" values="0 0 0 0 0 0 0 0 0 0 0 0 0 0 0 0 0 0 127 0" result="hardAlpha"/>
<feOffset dy="30"/>
<feGaussianBlur stdDeviation="20"/>
<feComposite in2="hardAlpha" operator="out"/>
<feColorMatrix type="matrix" values="0 0 0 0 0.35 0 0 0 0 0.40625 0 0 0 0 0.7 0 0 0 0.06 0"/>
<feBlend mode="normal" in2="effect1_dropShadow_7_1575" result="effect2_dropShadow_7_1575"/>
<feBlend mode="normal" in="SourceGraphic" in2="effect2_dropShadow_7_1575" result="shape"/>
</filter>
</defs>
</svg>
