<svg width="98" height="122" viewBox="0 0 98 122" fill="none" xmlns="http://www.w3.org/2000/svg">
<g filter="url(#filter0_dd_7_1576)">
<path d="M57.0025 34.4441L52.8325 30.6941C52.695 30.5691 52.5159 30.4996 52.33 30.4991H43.165C42.5474 30.4808 41.9474 30.7068 41.4953 31.128C41.0432 31.5492 40.7754 32.1317 40.75 32.7491V49.2491C40.7754 49.8665 41.0432 50.449 41.4953 50.8702C41.9474 51.2914 42.5474 51.5174 43.165 51.4991H54.835C55.4526 51.5174 56.0526 51.2914 56.5047 50.8702C56.9568 50.449 57.2246 49.8665 57.25 49.2491V34.9991C57.2498 34.8944 57.2276 34.791 57.185 34.6954C57.1424 34.5998 57.0802 34.5142 57.0025 34.4441ZM48.8725 37.2491H49.1275C49.696 37.2485 50.2519 37.4167 50.7248 37.7323C51.1976 38.0479 51.5662 38.4967 51.7839 39.022C52.0015 39.5472 52.0584 40.1251 51.9473 40.6827C51.8363 41.2403 51.5623 41.7523 51.16 42.1541L50.155 43.1591C50.0257 43.2846 49.9231 43.4351 49.8535 43.6014C49.7839 43.7677 49.7487 43.9463 49.75 44.1266C49.75 44.3255 49.671 44.5163 49.5303 44.6569C49.3897 44.7976 49.1989 44.8766 49 44.8766C48.8011 44.8766 48.6103 44.7976 48.4697 44.6569C48.329 44.5163 48.25 44.3255 48.25 44.1266C48.2501 43.3646 48.5522 42.6338 49.09 42.0941L50.095 41.0891C50.2243 40.9635 50.3269 40.813 50.3965 40.6468C50.4661 40.4805 50.5013 40.3018 50.5 40.1216C50.5 39.7576 50.3554 39.4085 50.098 39.1511C49.8406 38.8937 49.4915 38.7491 49.1275 38.7491H48.8725C48.5085 38.7491 48.1594 38.8937 47.902 39.1511C47.6446 39.4085 47.5 39.7576 47.5 40.1216C47.5 40.3205 47.421 40.5113 47.2803 40.6519C47.1397 40.7926 46.9489 40.8716 46.75 40.8716C46.5511 40.8716 46.3603 40.7926 46.2197 40.6519C46.079 40.5113 46 40.3205 46 40.1216C46.002 39.3604 46.3053 38.6309 46.8435 38.0926C47.3818 37.5543 48.1113 37.2511 48.8725 37.2491ZM48.25 46.2491C48.2463 46.2016 48.2463 46.154 48.25 46.1066C48.257 46.0569 48.2722 46.0087 48.295 45.9641C48.3114 45.9163 48.3341 45.8709 48.3625 45.8291C48.3902 45.7898 48.4202 45.7522 48.4525 45.7166C48.5238 45.6483 48.6079 45.5948 48.7 45.5591C48.8366 45.5016 48.9871 45.486 49.1326 45.514C49.2781 45.542 49.412 45.6125 49.5175 45.7166C49.5498 45.7522 49.5798 45.7898 49.6075 45.8291C49.6359 45.8709 49.6586 45.9163 49.675 45.9641C49.6978 46.0087 49.713 46.0569 49.72 46.1066C49.7337 46.1532 49.7438 46.2009 49.75 46.2491C49.7472 46.4477 49.6695 46.6379 49.5325 46.7816L49.42 46.8716C49.3782 46.9 49.3328 46.9227 49.285 46.9391L49.15 46.9991H49C48.902 46.9979 48.8052 46.9775 48.715 46.9391C48.6229 46.9034 48.5388 46.8499 48.4675 46.7816C48.3304 46.6379 48.2528 46.4477 48.25 46.2491Z" fill="#6295F2"/>
<path d="M57.25 35V36.5H52.75C52.1533 36.5 51.581 36.2629 51.159 35.841C50.7371 35.419 50.5 34.8467 50.5 34.25V30.5H52.33C52.5159 30.5005 52.695 30.57 52.8325 30.695L57.0025 34.445C57.0802 34.5151 57.1424 34.6007 57.185 34.6963C57.2276 34.7919 57.2498 34.8953 57.25 35Z" fill="#98B8FE"/>
<path d="M57.16 46.0997C57.16 46.0878 57.1647 46.0763 57.1732 46.0679C57.1816 46.0594 57.1931 46.0547 57.205 46.0547C57.2169 46.0547 57.2284 46.0594 57.2368 46.0679C57.2453 46.0763 57.25 46.0878 57.25 46.0997V49.2497C57.2246 49.8671 56.9568 50.4496 56.5047 50.8708C56.0526 51.292 55.4526 51.518 54.835 51.4997H43.165C42.5474 51.518 41.9474 51.292 41.4953 50.8708C41.0432 50.4496 40.7754 49.8671 40.75 49.2497V46.1147C40.75 46.1028 40.7547 46.0913 40.7632 46.0829C40.7716 46.0744 40.7831 46.0697 40.795 46.0697C40.8069 46.0697 40.8184 46.0744 40.8268 46.0829C40.8353 46.0913 40.84 46.1028 40.84 46.1147C41.0029 46.5993 41.3162 47.0193 41.7344 47.3134C42.1526 47.6075 42.6538 47.7603 43.165 47.7497H54.835C55.348 47.7593 55.8506 47.6043 56.2691 47.3073C56.6875 47.0104 56.9997 46.5871 57.16 46.0997Z" fill="url(#paint0_linear_7_1576)"/>
</g>
<defs>
<filter id="filter0_dd_7_1576" x="-3" y="-1" width="104" height="124" filterUnits="userSpaceOnUse" color-interpolation-filters="sRGB">
<feFlood flood-opacity="0" result="BackgroundImageFix"/>
<feColorMatrix in="SourceAlpha" type="matrix" values="0 0 0 0 0 0 0 0 0 0 0 0 0 0 0 0 0 0 127 0" result="hardAlpha"/>
<feOffset/>
<feGaussianBlur stdDeviation="15"/>
<feComposite in2="hardAlpha" operator="out"/>
<feColorMatrix type="matrix" values="0 0 0 0 0.34902 0 0 0 0 0.407843 0 0 0 0 0.698039 0 0 0 0.06 0"/>
<feBlend mode="normal" in2="BackgroundImageFix" result="effect1_dropShadow_7_1576"/>
<feColorMatrix in="SourceAlpha" type="matrix" values="0 0 0 0 0 0 0 0 0 0 0 0 0 0 0 0 0 0 127 0" result="hardAlpha"/>
<feOffset dy="30"/>
<feGaussianBlur stdDeviation="20"/>
<feComposite in2="hardAlpha" operator="out"/>
<feColorMatrix type="matrix" values="0 0 0 0 0.35 0 0 0 0 0.40625 0 0 0 0 0.7 0 0 0 0.06 0"/>
<feBlend mode="normal" in2="effect1_dropShadow_7_1576" result="effect2_dropShadow_7_1576"/>
<feBlend mode="normal" in="SourceGraphic" in2="effect2_dropShadow_7_1576" result="shape"/>
</filter>
<linearGradient id="paint0_linear_7_1576" x1="49" y1="51.4997" x2="49" y2="46.0697" gradientUnits="userSpaceOnUse">
<stop offset="0.14" stop-color="#3758C0"/>
<stop offset="0.24" stop-color="#446BCF"/>
<stop offset="0.4" stop-color="#5582E2"/>
<stop offset="0.55" stop-color="#5F90EE"/>
<stop offset="0.68" stop-color="#6295F2"/>
</linearGradient>
</defs>
</svg>
